<?xml version="1.0" encoding="utf-8"?>
<!-- Generator: Adobe Illustrator 17.1.0, SVG Export Plug-In . SVG Version: 6.00 Build 0)  -->
<!DOCTYPE svg PUBLIC "-//W3C//DTD SVG 1.1 Tiny//EN" "http://www.w3.org/Graphics/SVG/1.1/DTD/svg11-tiny.dtd">
<svg version="1.1" baseProfile="tiny" xmlns="http://www.w3.org/2000/svg" xmlns:xlink="http://www.w3.org/1999/xlink" x="0px"
	 y="0px" viewBox="0 0 1756.3 1500.2" xml:space="preserve">
<g id="laser_base">
	<path fill="#808080" d="M550.2,369.4l14-12.7l5.2-59.7l-17.5-19.4l-7.1,6.5l-7.5,86.5h11.9L550.2,369.4z M546,320.4h14.2v14.2H546
		V320.4z M558.9,451l-21.1,19.4l6.1,6.5H641l7.1-6.5L630.4,451H558.9z M600.7,471.1h-14.2v-14.2h14.2V471.1z M561.5,388.4
		l-11.7-12.7l-0.8-1h-12.1l-7.5,86.5l5.8,6.5l21.1-19.4L561.5,388.4z M553,425.3h-14.2v-14.2H553V425.3z M552.9,372.5l11.9,13H636
		l14-12.7l-11.9-13.2h-71L552.9,372.5z M594.5,365.4h14.2v14.2h-14.2V365.4z M823.2,375.6l-13.8,12.7l-5.2,59.7l17.5,19.4l7.1-6.5
		l7.5-86.3h-12.1L823.2,375.6z M826.8,425.3h-14.2v-14.2h14.2V425.3z M729.4,451l-21.1,19.4l6.1,6.5h97.1l7.1-6.5L800.8,451H729.4z
		 M771.1,471.1h-14.2v-14.2h14.2V471.1z M652.7,375.6L639,388.4l-5.2,59.7l17.5,19.4l7.1-6.5l7.5-86.3h-12.1L652.7,375.6z
		 M656.3,425.3h-14.2v-14.2h14.2V425.3z M644.2,293.9l21.1-19.4l-6.1-6.5h-97.1l-7.1,6.5l17.8,19.4H644.2z M601.4,273.9h14.2v14.2
		h-14.2V273.9z M646.9,296.9l-5.2,60l11.7,12.7l0.8,0.8h12.1l7.5-86.5l-5.8-6.5L646.9,296.9z M664.3,333.8h-14.2v-14.2h14.2V333.8z
		 M935.6,372.5l11.9,13h71.2l14-12.7l-11.9-13.2h-71L935.6,372.5z M977.2,365.4h14.2v14.2h-14.2V365.4z M1106,372.5l11.9,13h71.2
		l14-12.7l-11.9-13.2h-71L1106,372.5z M1147.6,365.4h14.2v14.2h-14.2V365.4z M1103.3,369.4l14-12.7l5.2-59.7l-17.5-19.4l-7.1,6.5
		l-7.5,86.5h11.9L1103.3,369.4z M1099.2,320.4h14.2v14.2h-14.2V320.4z M1197.3,293.9l21.1-19.4l-6.1-6.5h-97.1l-7.1,6.5l17.8,19.4
		H1197.3z M1154.5,273.9h14.2v14.2h-14.2V273.9z M1026.9,293.9l21.1-19.4l-6.1-6.5h-97.1l-7.1,6.5l17.8,19.4H1026.9z M984.1,273.9
		h14.2v14.2h-14.2V273.9z M817.4,296.9l-5.2,60l11.7,12.7l0.8,0.8h12.1l7.5-86.5l-5.8-6.5L817.4,296.9z M834.8,333.8h-14.2v-14.2
		h14.2V333.8z M814.6,293.9l21.1-19.4l-6.1-6.5h-97.1l-7.1,6.5l17.8,19.4H814.6z M771.8,273.9H786v14.2h-14.2V273.9z M723.3,372.5
		l11.9,13h71.2l14-12.7l-11.9-13.2h-71L723.3,372.5z M764.9,365.4h14.2v14.2h-14.2V365.4z M720.6,369.4l14-12.7l5.2-59.7l-17.5-19.4
		l-7.1,6.5l-7.5,86.5h11.9L720.6,369.4z M716.5,320.4h14.2v14.2h-14.2V320.4z M932.9,369.4l14-12.7l5.2-59.7l-17.5-19.4l-7.1,6.5
		l-7.5,86.5h11.9L932.9,369.4z M928.7,320.4h14.2v14.2h-14.2V320.4z M731.9,388.4l-11.7-12.7l-0.8-1h-12.1l-7.5,86.5l5.8,6.5
		l21.1-19.4L731.9,388.4z M723.5,425.3h-14.2v-14.2h14.2V425.3z M1112.1,451l-21.1,19.4l6.1,6.5h97.1l7.1-6.5l-17.8-19.4H1112.1z
		 M1153.8,471.1h-14.2v-14.2h14.2V471.1z M941.6,451l-21.1,19.4l6.1,6.5h97.1l7.1-6.5l-17.8-19.4H941.6z M983.4,471.1h-14.2v-14.2
		h14.2V471.1z M944.2,388.4l-11.7-12.7l-0.8-1h-12.1l-7.5,86.5l5.8,6.5l21.1-19.4L944.2,388.4z M935.7,425.3h-14.2v-14.2h14.2V425.3
		z M1114.6,388.4l-11.7-12.7l-0.8-1H1090l-7.5,86.5l5.8,6.5l21.1-19.4L1114.6,388.4z M1106.2,425.3H1092v-14.2h14.2V425.3z
		 M1205.9,375.6l-13.8,12.7l-5.2,59.7l17.5,19.4l7.1-6.5l7.5-86.3h-12.1L1205.9,375.6z M1209.5,425.3h-14.2v-14.2h14.2V425.3z
		 M1029.6,296.9l-5.2,60l11.7,12.7l0.8,0.8h12.1l7.5-86.5l-5.8-6.5L1029.6,296.9z M1047,333.8h-14.2v-14.2h14.2V333.8z
		 M1035.4,375.6l-13.8,12.7l-5.2,59.7l17.5,19.4l7.1-6.5l7.5-86.3h-12.1L1035.4,375.6z M1039,425.3h-14.2v-14.2h14.2V425.3z
		 M1221.2,277.4l-21.1,19.4l-5.2,60l11.7,12.7l0.8,0.8h12.1l7.5-86.5L1221.2,277.4z M1217.5,333.8h-14.2v-14.2h14.2V333.8z
		 M900.7,323.2c-1.1-1.4-2.4-2.4-3.8-2.9c-1.3-0.6-2.9-0.8-5-0.8c-1.8,0-3.5,0.3-5,0.8c-1.5,0.6-3,1.5-4.4,2.9
		c-1.4,1.4-2.4,2.7-3.1,4c-0.7,1.3-1.2,2.9-1.5,5c-0.1,1.4,0.1,3.1,0.6,5c0.4,1.4,1.2,2.8,2.3,4.2c0.8,1.1,2.2,2,4,2.7
		c1.7,0.7,3.3,1,4.8,1c1.7,0,3.4-0.3,5.2-1c1.5-0.6,2.9-1.5,4.2-2.7c1.1-1.1,2.2-2.5,3.1-4.2c0.7-1.3,1.2-2.9,1.5-5
		c0.1-1.7,0-3.3-0.4-5C902.9,326.2,902.1,324.9,900.7,323.2z M897.9,339.4h-14.2v-14.2h14.2V339.4z M893.2,409.3
		c-1.1-1.4-2.4-2.4-3.8-2.9c-1.3-0.6-2.9-0.8-5-0.8c-2,0-3.7,0.3-5.2,0.8c-1.4,0.6-2.8,1.5-4.2,2.9c-1.4,1.4-2.4,2.7-3.1,4
		c-0.7,1.3-1.2,2.9-1.5,5c-0.1,1.7,0,3.3,0.4,5c0.3,1.3,1.1,2.6,2.5,4.2c0.8,1.1,2.2,2,4,2.7c1.7,0.7,3.3,1,4.8,1
		c1.7,0,3.4-0.3,5.2-1c1.5-0.6,2.9-1.5,4.2-2.7c1.1-1.1,2.2-2.5,3.1-4.2c0.7-1.3,1.2-2.9,1.5-5c0.1-1.7,0-3.3-0.4-5
		C895.4,412.3,894.6,410.9,893.2,409.3z M890.3,425.4h-14.2v-14.2h14.2V425.4z"/>
	<path fill="none" stroke="#FF0000" stroke-miterlimit="10" d="M139.7,59.3v626.5h1476.9V59.3H139.7z M553,425.3h-14.2v-14.2H553
		V425.3z M560.2,334.5H546v-14.2h14.2V334.5z M600.7,471.1h-14.2v-14.2h14.2V471.1z M608.6,379.6h-14.2v-14.2h14.2V379.6z
		 M615.5,288.1h-14.2v-14.2h14.2V288.1z M656.3,425.3h-14.2v-14.2h14.2V425.3z M664.3,333.8h-14.2v-14.2h14.2V333.8z M723.5,425.3
		h-14.2v-14.2h14.2V425.3z M730.6,334.5h-14.2v-14.2h14.2V334.5z M771.1,471.1h-14.2v-14.2h14.2V471.1z M779.1,379.6h-14.2v-14.2
		h14.2V379.6z M786,288.1h-14.2v-14.2H786V288.1z M826.8,425.3h-14.2v-14.2h14.2V425.3z M834.8,333.8h-14.2v-14.2h14.2V333.8z
		 M890.3,425.4h-14.2v-14.2h14.2V425.4z M897.9,339.4h-14.2v-14.2h14.2V339.4z M935.7,425.3h-14.2v-14.2h14.2V425.3z M942.9,334.5
		h-14.2v-14.2h14.2V334.5z M983.4,471.1h-14.2v-14.2h14.2V471.1z M991.3,379.6h-14.2v-14.2h14.2V379.6z M998.2,288.1h-14.2v-14.2
		h14.2V288.1z M1039,425.3h-14.2v-14.2h14.2V425.3z M1047,333.8h-14.2v-14.2h14.2V333.8z M1106.2,425.3H1092v-14.2h14.2V425.3z
		 M1113.3,334.5h-14.2v-14.2h14.2V334.5z M1153.8,471.1h-14.2v-14.2h14.2V471.1z M1161.8,379.6h-14.2v-14.2h14.2V379.6z
		 M1168.7,288.1h-14.2v-14.2h14.2V288.1z M1209.5,425.3h-14.2v-14.2h14.2V425.3z M1217.5,333.8h-14.2v-14.2h14.2V333.8z"/>
</g>
<g id="laser_front">
	<path fill="none" stroke="#FF0000" stroke-miterlimit="10" d="M139.7,750.1v626.5h1476.9V750.1H139.7z M1115.2,958.9h97.1l6.1,6.5
		l-21.1,19.4h-71.4l-17.8-19.4L1115.2,958.9z M1191.3,1050.4l11.9,13.2l-14,12.7H1118l-11.9-13l14.2-13H1191.3z M1097.9,974.7
		l7.1-6.5l17.5,19.4l-5.2,59.7l-14,12.7l-1,1h-11.9L1097.9,974.7z M944.8,958.9h97.1l6.1,6.5l-21.1,19.4h-71.4l-17.8-19.4
		L944.8,958.9z M1020.8,1050.4l11.9,13.2l-14,12.7h-71.2l-11.9-13l14.2-13H1020.8z M927.4,974.7l7.1-6.5l17.5,19.4l-5.2,59.7
		l-14,12.7l-1,1h-11.9L927.4,974.7z M732.5,958.9h97.1l6.1,6.5l-21.1,19.4h-71.4l-17.8-19.4L732.5,958.9z M808.6,1050.4l11.9,13.2
		l-14,12.7h-71.2l-11.9-13l14.2-13H808.6z M715.2,974.7l7.1-6.5l17.5,19.4l-5.2,59.7l-14,12.7l-1,1h-11.9L715.2,974.7z M562.1,958.9
		h97.1l6.1,6.5l-21.1,19.4h-71.4L555,965.3L562.1,958.9z M638.1,1050.4l11.9,13.2l-14,12.7h-71.2l-11.9-13l14.2-13H638.1z
		 M544.7,974.7l7.1-6.5l17.5,19.4l-5.2,59.7l-14,12.7l-1,1h-11.9L544.7,974.7z M529.3,1151.9l7.5-86.5h12.1l0.8,1l11.7,12.7
		l-5.2,59.7l-21.1,19.4L529.3,1151.9z M641,1167.8h-97.1l-6.1-6.5l21.1-19.4h71.4l17.8,19.4L641,1167.8z M658.4,1151.9l-7.1,6.5
		l-17.5-19.4l5.2-59.7l13.8-12.7l1-0.8h12.1L658.4,1151.9z M666.3,1061.2h-12.1l-0.8-0.8l-11.7-12.7l5.2-60l21.1-19.4l5.8,6.5
		L666.3,1061.2z M699.7,1151.9l7.5-86.5h12.1l0.8,1l11.7,12.7l-5.2,59.7l-21.1,19.4L699.7,1151.9z M811.5,1167.8h-97.1l-6.1-6.5
		l21.1-19.4h71.4l17.8,19.4L811.5,1167.8z M828.8,1151.9l-7.1,6.5l-17.5-19.4l5.2-59.7l13.8-12.7l1-0.8h12.1L828.8,1151.9z
		 M836.8,1061.2h-12.1l-0.8-0.8l-11.7-12.7l5.2-60l21.1-19.4l5.8,6.5L836.8,1061.2z M896.1,1109.1c-0.3,2.1-0.8,3.8-1.5,5
		c-1,1.7-2,3.1-3.1,4.2c-1.3,1.3-2.6,2.2-4.2,2.7c-1.8,0.7-3.6,1-5.2,1c-1.5,0-3.1-0.3-4.8-1c-1.8-0.7-3.1-1.6-4-2.7
		c-1.4-1.5-2.2-2.9-2.5-4.2c-0.4-1.7-0.6-3.3-0.4-5c0.3-2.1,0.8-3.8,1.5-5c0.7-1.3,1.7-2.6,3.1-4c1.4-1.4,2.8-2.4,4.2-2.9
		c1.5-0.6,3.3-0.8,5.2-0.8c2.1,0,3.8,0.3,5,0.8c1.4,0.6,2.6,1.5,3.8,2.9c1.4,1.7,2.2,3,2.5,4
		C896.1,1105.7,896.2,1107.4,896.1,1109.1z M903.6,1023c-0.3,2.1-0.8,3.8-1.5,5c-1,1.7-2,3.1-3.1,4.2c-1.3,1.3-2.6,2.2-4.2,2.7
		c-1.8,0.7-3.6,1-5.2,1c-1.5,0-3.1-0.3-4.8-1c-1.8-0.7-3.1-1.6-4-2.7c-1.1-1.4-1.9-2.8-2.3-4.2c-0.6-1.9-0.8-3.6-0.6-5
		c0.3-2.1,0.8-3.8,1.5-5c0.7-1.3,1.7-2.6,3.1-4c1.4-1.4,2.9-2.4,4.4-2.9c1.5-0.6,3.2-0.8,5-0.8c2.1,0,3.8,0.3,5,0.8
		c1.4,0.6,2.6,1.5,3.8,2.9c1.4,1.7,2.2,3,2.5,4C903.6,1019.6,903.8,1021.3,903.6,1023z M912,1151.9l7.5-86.5h12.1l0.8,1l11.7,12.7
		l-5.2,59.7l-21.1,19.4L912,1151.9z M1023.7,1167.8h-97.1l-6.1-6.5l21.1-19.4h71.4l17.8,19.4L1023.7,1167.8z M1041.1,1151.9
		l-7.1,6.5l-17.5-19.4l5.2-59.7l13.8-12.7l1-0.8h12.1L1041.1,1151.9z M1049,1061.2h-12.1l-0.8-0.8l-11.7-12.7l5.2-60l21.1-19.4
		l5.8,6.5L1049,1061.2z M1082.4,1151.9l7.5-86.5h12.1l0.8,1l11.7,12.7l-5.2,59.7l-21.1,19.4L1082.4,1151.9z M1194.2,1167.8h-97.1
		l-6.1-6.5l21.1-19.4h71.4l17.8,19.4L1194.2,1167.8z M1211.5,1151.9l-7.1,6.5l-17.5-19.4l5.2-59.7l13.8-12.7l1-0.8h12.1
		L1211.5,1151.9z M1219.5,1061.2h-12.1l-0.8-0.8l-11.7-12.7l5.2-60l21.1-19.4l5.8,6.5L1219.5,1061.2z"/>
</g>
</svg>
